<svg width="433" height="506" viewBox="0 0 433 506" fill="none" xmlns="http://www.w3.org/2000/svg">
<path d="M414.144 389.912H414.355V389.806C427.342 364.992 423.752 333.105 404.746 313.993C393.236 302.378 377.504 295.831 361.138 295.831H360.821C344.456 295.831 328.828 302.273 317.319 313.887L203.707 415.148C185.968 433.204 165.589 442.707 144.894 442.707C125.149 442.707 106.038 433.837 89.5664 417.154C76.2622 403.639 66.6534 364.571 64.1192 335.006C121.243 373.018 197.267 365.522 245.732 316.951L343.929 218.753C364.308 198.375 364.308 165.326 343.929 144.841L343.295 144.208C353.432 129.109 348.786 108.413 332.842 99.1211C319.221 91.2019 301.376 94.6864 291.769 107.251C280.576 121.928 284.166 142.729 299.265 152.865C304.439 156.35 310.563 158.25 316.898 158.25C319.96 158.25 323.022 157.723 325.978 156.772L328.935 159.729C341.078 171.872 341.078 191.617 328.935 203.76L230.738 301.957C213.738 319.062 192.092 330.677 168.546 335.428C168.229 333.633 167.385 332.05 166.223 330.677L28.8524 182.959C28.008 182.115 27.0577 181.481 26.0015 180.952C31.7033 161.102 42.3674 143.047 57.0445 128.369L155.242 30.1721C166.962 18.4518 187.446 18.4518 199.272 30.1721L202.229 33.129C197.161 49.8116 206.664 67.4455 223.346 72.5138C234.539 75.8923 246.576 72.8305 254.812 64.5946C267.166 52.1349 267.06 32.0737 254.706 19.8248C244.042 9.26563 227.358 7.57688 214.794 15.9177L214.16 15.2842C193.781 -5.09473 160.733 -5.09473 140.248 15.2842L42.0506 113.481C-14.0169 169.549 -14.0169 260.883 42.0506 317.056L42.1565 317.162C41.523 346.198 51.6595 408.918 74.4666 432.041C94.9504 452.842 119.341 463.929 144.894 463.929C171.397 463.929 196.95 452.209 218.278 430.563L331.997 329.304C339.599 321.49 350.052 317.056 360.928 317.056C371.698 317.056 382.046 321.384 389.648 329.093C401.474 341.024 404.219 360.769 397.25 377.03C363.146 358.447 320.171 371.962 303.065 407.334C287.755 438.904 299.158 477.445 329.146 495.605C362.723 515.878 406.12 503.947 424.703 469.737C438.852 443.657 434.629 411.347 414.144 389.912ZM324.183 134.494C320.171 138.612 313.519 138.612 309.295 134.494C305.177 130.376 305.177 123.724 309.295 119.606C313.413 115.488 320.065 115.488 324.183 119.606C328.301 123.724 328.301 130.376 324.183 134.494ZM224.93 35.1345C226.831 33.128 229.576 32.0727 232.322 32.0727C238.129 32.0727 242.881 36.8242 242.881 42.6319C242.881 45.3769 241.72 48.1228 239.819 50.0234C235.701 54.1414 229.049 54.1414 224.931 50.0234C220.812 45.9045 220.812 39.2524 224.93 35.1345ZM21.25 215.691C21.25 212.523 21.4609 209.355 21.6727 206.294L143.944 338.068H143.838C76.1553 338.068 21.3549 283.268 21.25 215.691ZM399.045 471.004C398.834 471.214 398.728 471.32 398.622 471.426C380.039 490.009 349.947 490.009 331.468 471.426C312.99 452.843 312.885 422.75 331.468 404.272C350.051 385.689 380.144 385.689 398.622 404.272C417.207 422.644 417.418 452.526 399.045 471.004Z" fill="white"/>
<ellipse cx="232.479" cy="41.8358" rx="32.8292" ry="32.5387" fill="white"/>
<ellipse cx="317.312" cy="126.669" rx="32.8292" ry="32.5387" fill="white"/>
<path d="M130.742 143.175C115.706 158.211 115.706 182.589 130.742 197.626L145.264 212.147L148.072 211.607L148.077 211.606L148.156 211.589C148.237 211.571 148.377 211.538 148.57 211.49C148.958 211.392 149.564 211.227 150.36 210.972C151.953 210.464 154.308 209.598 157.212 208.199C163.014 205.403 171.021 200.468 179.527 191.963C188.032 183.457 192.968 175.449 195.764 169.646C197.164 166.742 198.03 164.387 198.539 162.793C198.794 161.997 198.958 161.391 199.056 161.003C199.105 160.809 199.137 160.67 199.156 160.588L199.173 160.51L199.174 160.504L199.715 157.697L185.192 143.175C170.156 128.139 145.778 128.139 130.742 143.175Z" fill="white"/>
<path d="M206.816 164.798C206.759 164.983 206.698 165.177 206.634 165.379C206.014 167.32 205.004 170.048 203.42 173.336C200.248 179.917 194.778 188.729 185.536 197.972C176.294 207.213 167.482 212.683 160.901 215.854C157.613 217.439 154.886 218.448 152.945 219.067C152.743 219.132 152.55 219.193 152.365 219.249L167.042 233.926C182.078 248.962 206.456 248.962 221.492 233.926C236.529 218.889 236.529 194.511 221.492 179.475L206.816 164.798Z" fill="white"/>
<path d="M392.498 430.702H372.888V411.092C372.888 408.685 370.936 406.734 368.53 406.734H364.172C361.766 406.734 359.814 408.685 359.814 411.092V430.702H340.204C337.797 430.702 335.846 432.654 335.846 435.06V439.418C335.846 441.824 337.797 443.776 340.204 443.776H359.814V463.386C359.814 465.792 361.766 467.744 364.172 467.744H368.53C370.936 467.744 372.888 465.792 372.888 463.386V443.776H392.498C394.904 443.776 396.856 441.824 396.856 439.418V435.06C396.856 432.654 394.904 430.702 392.498 430.702Z" fill="white"/>
</svg>
