<svg width="746" height="870" viewBox="0 0 746 870" fill="none" xmlns="http://www.w3.org/2000/svg">
<path d="M712.753 671.049H713.116V670.866C735.468 628.162 729.289 573.282 696.579 540.39C676.771 520.402 649.695 509.134 621.529 509.134H620.984C592.818 509.134 565.922 520.219 546.114 540.208L350.585 714.481C320.056 745.555 284.983 761.91 249.367 761.91C215.385 761.91 182.495 746.646 154.146 717.934C131.249 694.675 114.712 627.437 110.351 576.555C208.662 641.975 339.501 629.073 422.911 545.481L591.911 376.481C626.984 341.408 626.984 284.531 591.911 249.276L590.821 248.185C608.266 222.2 600.271 186.582 572.831 170.59C549.389 156.961 518.677 162.958 502.142 184.582C482.879 209.842 489.058 245.64 515.043 263.085C523.948 269.082 534.487 272.353 545.39 272.353C550.66 272.353 555.931 271.445 561.018 269.81L566.106 274.898C587.005 295.797 587.005 329.777 566.106 350.676L397.106 519.676C367.85 549.115 330.596 569.103 290.072 577.281C289.527 574.192 288.074 571.466 286.074 569.103L49.6557 314.877C48.2025 313.424 46.567 312.334 44.7493 311.424C54.5622 277.261 72.9154 246.187 98.1751 220.927L267.175 51.9271C287.346 31.7561 322.6 31.7561 342.953 51.9271L348.042 57.0158C339.319 85.7271 355.674 116.076 384.385 124.798C403.648 130.613 424.364 125.343 438.538 111.169C459.8 89.7256 459.618 55.1998 438.356 34.119C420.003 15.9464 391.29 13.04 369.666 27.3948L368.575 26.3045C333.503 -8.76816 276.625 -8.76816 241.37 26.3045L72.3702 195.305C-24.1234 291.798 -24.1234 448.987 72.3702 545.661L72.5525 545.844C71.4622 595.816 88.9074 703.758 128.159 743.555C163.412 779.354 205.39 798.434 249.367 798.434C294.979 798.434 338.956 778.263 375.663 741.01L571.376 566.74C584.46 553.294 602.45 545.661 621.168 545.661C639.703 545.661 657.511 553.111 670.595 566.378C690.948 586.911 695.673 620.894 683.679 648.879C624.984 616.897 551.022 640.157 521.584 701.033C495.234 755.367 514.859 821.696 566.469 852.951C624.256 887.841 698.944 867.307 730.926 808.43C755.276 763.546 748.008 707.939 712.753 671.049ZM557.927 231.468C551.022 238.555 539.574 238.555 532.305 231.468C525.218 224.381 525.218 212.932 532.305 205.845C539.392 198.758 550.84 198.758 557.927 205.845C565.014 212.932 565.014 224.381 557.927 231.468ZM387.111 60.4674C390.382 57.0141 395.106 55.1981 399.832 55.1981C409.827 55.1981 418.005 63.3755 418.005 73.3707C418.005 78.0949 416.006 82.8207 412.735 86.0917C405.648 93.1788 394.2 93.1788 387.113 86.0917C380.024 79.0029 380.024 67.5545 387.111 60.4674ZM36.5718 371.21C36.5718 365.758 36.9347 360.306 37.2993 355.037L247.732 581.824H247.549C131.065 581.824 36.7524 487.511 36.5718 371.21ZM686.768 810.61C686.405 810.973 686.223 811.155 686.04 811.338C654.058 843.32 602.268 843.32 570.466 811.338C538.664 779.355 538.484 727.565 570.466 695.763C602.448 663.781 654.239 663.781 686.04 695.763C718.024 727.383 718.387 778.81 686.768 810.61Z" fill="#19244D"/>
<ellipse cx="400.103" cy="72.0004" rx="56.5" ry="56" fill="#40B44F"/>
<ellipse cx="546.103" cy="218" rx="56.5" ry="56" fill="#40B44F"/>
<path d="M225.011 246.408C199.133 272.286 199.133 314.242 225.011 340.119L250.003 365.111L254.835 364.181L254.845 364.179L254.98 364.15C255.12 364.119 255.36 364.063 255.694 363.979C256.361 363.811 257.403 363.527 258.774 363.089C261.516 362.214 265.569 360.725 270.566 358.316C280.552 353.504 294.333 345.012 308.971 330.373C323.609 315.735 332.103 301.953 336.916 291.966C339.325 286.968 340.815 282.914 341.691 280.172C342.129 278.801 342.413 277.758 342.582 277.091C342.666 276.757 342.721 276.517 342.752 276.377L342.782 276.242L342.783 276.232L343.715 271.402L318.721 246.408C292.844 220.531 250.888 220.531 225.011 246.408Z" fill="#1E1E1E"/>
<path d="M355.935 283.622C355.838 283.94 355.733 284.274 355.622 284.622C354.556 287.963 352.818 292.657 350.091 298.316C344.632 309.642 335.218 324.809 319.312 340.715C303.407 356.62 288.241 366.034 276.915 371.491C271.257 374.218 266.564 375.954 263.223 377.021C262.875 377.132 262.542 377.236 262.225 377.333L287.484 402.592C313.362 428.47 355.317 428.47 381.195 402.592C407.072 376.715 407.072 334.759 381.195 308.882L355.935 283.622Z" fill="#40B44F"/>
<path d="M675.5 741.25H641.75V707.5C641.75 703.359 638.391 700 634.25 700H626.75C622.609 700 619.25 703.359 619.25 707.5V741.25H585.5C581.359 741.25 578 744.609 578 748.75V756.25C578 760.391 581.359 763.75 585.5 763.75H619.25V797.5C619.25 801.641 622.609 805 626.75 805H634.25C638.391 805 641.75 801.641 641.75 797.5V763.75H675.5C679.641 763.75 683 760.391 683 756.25V748.75C683 744.609 679.641 741.25 675.5 741.25Z" fill="#40B44F"/>
</svg>
