<?xml version="1.0" encoding="iso-8859-1"?>
<!-- Uploaded to: SVG Repo, www.svgrepo.com, Generator: SVG Repo Mixer Tools -->
<svg fill="#000000" version="1.1" id="Layer_1" xmlns="http://www.w3.org/2000/svg" xmlns:xlink="http://www.w3.org/1999/xlink" 
	 viewBox="0 0 512 512" xml:space="preserve">
<g>
	<g>
		<path d="M421.833,149.635C413.26,65.702,342.158,0,256,0S98.74,65.702,90.167,149.635h-54.31v17.067
			c0,115.645,89.633,210.747,203.076,219.486v34.79h-39.822c-40.779,0-73.956,33.176-73.956,73.956V512h261.689v-17.067
			c0-40.779-33.177-73.956-73.956-73.956h-39.822v-34.79c113.443-8.739,203.076-103.842,203.076-219.486v-17.067H421.833z
			 M70.766,183.768h19.399c8.001,78.321,70.448,140.767,148.768,148.768v19.391C149.959,343.794,78.898,272.744,70.766,183.768z
			 M312.889,455.111c15.855,0,29.574,9.313,35.977,22.756H163.135c6.402-13.443,20.123-22.756,35.977-22.756H312.889z M256,299.27
			c-73.099,0-132.568-59.469-132.568-132.568c0-73.098,59.469-132.568,132.568-132.568s132.568,59.47,132.568,132.568
			S329.099,299.27,256,299.27z M273.067,351.927v-19.391c78.32-8.001,140.767-70.447,148.767-148.767h19.399
			C433.102,272.744,362.041,343.794,273.067,351.927z"/>
	</g>
</g>
<g>
	<g>
		
			<rect x="168.879" y="125.148" transform="matrix(0.7071 -0.7071 0.7071 0.7071 -32.2456 206.5807)" width="128.727" height="34.133"/>
	</g>
</g>
<g>
	<g>
		
			<rect x="246.574" y="170.665" transform="matrix(0.7071 -0.7071 0.7071 0.7071 -51.1005 252.0955)" width="64.364" height="34.133"/>
	</g>
</g>
</svg>